<svg width="82" height="67" fill="none" xmlns="http://www.w3.org/2000/svg"><g clip-path="url(#a)"><path d="M68 14H14v53h54V14Z" fill="url(#b)"/><path d="M14 14v53c-4 0-8-1-11-3-2-2-3-4-3-7V23c0-4 3-6 7-8l7-1Z" fill="url(#c)"/><path d="M58 14h5v53H18V14h6V7c-1-1 0-2 1-3l3-1h26l3 1 1 3v7Zm-29 0h9a8150 8150 0 0 1 14-1V8H29v6Z" fill="#fff"/><mask id="d" style="mask-type:alpha" maskUnits="userSpaceOnUse" x="18" y="3" width="46" height="64"><path d="M58 14h5v53H18V14h6V7c-1-1 0-2 1-3l3-1h26l3 1 1 3v7Zm-29 0h9a8150 8150 0 0 1 14-1V8H29v6Z" fill="#F7F9FC"/></mask><g mask="url(#d)"><path d="M59 1H22v13h37V1Z" fill="url(#e)"/></g><path d="M81 23c0-3-2-6-5-8l-8-1v53l5-1c5-1 8-4 8-9V23Z" fill="url(#f)"/><path d="M45 44v7l-1 1a781 781 0 0 1-7-1v-7h-8l-1-1v-6l1-1h8v-6l1-2h6l1 2v6h7l2 1v6l-2 1h-7Z" fill="url(#g)"/></g><defs><linearGradient id="b" x1="13.8" y1="40.2" x2="67.7" y2="40.2" gradientUnits="userSpaceOnUse"><stop stop-color="#B0F4FF"/><stop offset="1" stop-color="#69DCFC"/></linearGradient><linearGradient id="c" x1=".3" y1="40.2" x2="13.8" y2="40.2" gradientUnits="userSpaceOnUse"><stop stop-color="#6CBCFC"/><stop offset="1" stop-color="#458DFC"/></linearGradient><linearGradient id="e" x1="21.6" y1="7.2" x2="59.2" y2="7.2" gradientUnits="userSpaceOnUse"><stop stop-color="#6CBCFC"/><stop offset="1" stop-color="#458DFC"/></linearGradient><linearGradient id="f" x1="67.7" y1="40.2" x2="81.5" y2="40.2" gradientUnits="userSpaceOnUse"><stop stop-color="#6CBCFC"/><stop offset="1" stop-color="#458DFC"/></linearGradient><linearGradient id="g" x1="28.1" y1="40.2" x2="53.7" y2="40.2" gradientUnits="userSpaceOnUse"><stop stop-color="#6CBCFC"/><stop offset="1" stop-color="#458DFC"/></linearGradient><clipPath id="a"><path fill="#fff" transform="translate(0 1)" d="M0 0h81v66H0z"/></clipPath></defs></svg>