<svg width="64" height="80" fill="none" xmlns="http://www.w3.org/2000/svg"><g clip-path="url(#a)"><path d="M63 25v44c0 6-6 11-13 11l-37-1C6 79 0 75 0 69l1-44c0-5 3-8 9-10v-3h44v3c5 2 9 6 9 10Z" fill="url(#b)"/><path d="M57 2v9l-1 1H8l-2-2 1-7V2l1-1h48l1 1Z" fill="url(#c)"/><path d="M57 3v7H6l1-7h50Z" fill="url(#d)"/><path d="M63 33H0v25h63V33Z" fill="#F7F9FC"/><path d="M63 33H0v4l63 1v-5Z" fill="#FBFCF7"/><path d="M25 43h-4v-4h-6v4h-4v5h4v4h6v-4h4v-5Z" fill="url(#e)"/><path d="M52 44H32l-1-1 1-1h20l1 1-1 1Z" fill="url(#f)"/><path opacity=".5" d="M52 50H32l-1-1v-1l1-1 20 1h1v1l-1 1Z" fill="url(#g)"/><path opacity=".1" d="M6 2v1l1 4v4l1 1h48l1-2C32 11 8 1 8 1L6 2Z" fill="#1A6FB5"/></g><defs><linearGradient id="b" x1=".3" y1="11.3" x2="51.6" y2="88.8" gradientUnits="userSpaceOnUse"><stop stop-color="#6CBCFC"/><stop offset="1" stop-color="#458DFC"/></linearGradient><linearGradient id="c" x1="-638.7" y1="-36.3" x2="-28.3" y2="10.2" gradientUnits="userSpaceOnUse"><stop stop-color="#B0F4FF"/><stop offset=".1" stop-color="#A9F2FF"/><stop offset=".3" stop-color="#8DE8FE"/><stop offset=".5" stop-color="#79E1FD"/><stop offset=".8" stop-color="#6DDDFC"/><stop offset="1" stop-color="#69DCFC"/></linearGradient><linearGradient id="d" x1="6.5" y1="6.4" x2="57.2" y2="6.4" gradientUnits="userSpaceOnUse"><stop stop-color="#B0F4FF"/><stop offset=".1" stop-color="#A9F2FF"/><stop offset=".3" stop-color="#8DE8FE"/><stop offset=".5" stop-color="#79E1FD"/><stop offset=".8" stop-color="#6DDDFC"/><stop offset="1" stop-color="#69DCFC"/></linearGradient><linearGradient id="e" x1="22.6" y1="40.7" x2="14" y2="51.5" gradientUnits="userSpaceOnUse"><stop stop-color="#6CBCFC"/><stop offset="1" stop-color="#458DFC"/></linearGradient><linearGradient id="f" x1="53.4" y1="43.1" x2="29.6" y2="43.1" gradientUnits="userSpaceOnUse"><stop stop-color="#6CBCFC"/><stop offset="1" stop-color="#458DFC"/></linearGradient><linearGradient id="g" x1="31.3" y1="48.6" x2="53.2" y2="48.6" gradientUnits="userSpaceOnUse"><stop stop-color="#6CBCFC"/><stop offset="1" stop-color="#458DFC"/></linearGradient><clipPath id="a"><path fill="#fff" transform="translate(0 1)" d="M0 0h63v79H0z"/></clipPath></defs></svg>