<svg width="69" height="89" fill="none" xmlns="http://www.w3.org/2000/svg"><g clip-path="url(#a)"><path d="M68 85c0 2-2 4-4 4H5c-2 0-4-1-4-3v-1L0 7c0-2 2-4 5-4h59c2 0 4 2 4 4v78Z" fill="url(#b)"/><path d="M62 84H7c-2 0-3-1-3-2V10c0-2 1-3 3-3h55c2 0 3 1 3 3v72c0 1-1 2-3 2Z" fill="#fff"/><path d="M55 13H14l-3-2V5l3-2h41l2 2v6l-2 2ZM14 4l-1 1v6l1 1h41l1-1V5l-1-1H14Z" fill="url(#c)"/><path d="M53 5H15V1h39v4h-1Z" fill="url(#d)"/><path d="M15 5h39V3H15v2ZM29 76l-3-18-3 8h-8l-1-1 1-1h7l4-13 3 18 5-12 2 6 5-11 5 17 2-5h6l-1 1h-4l-3 10-5-19-5 11-2-5-5 14Z" fill="#58D6F4"/><path d="M23 41H12c-1 0-3-1-3-3V24l3-2h11c2 0 3 1 3 2v14c0 2-1 3-3 3ZM12 22l-2 2v14l2 2h11l2-2V24l-2-2H12Z" fill="url(#e)"/><path d="M18 38c5 0 6-2 6-2v-1l-3-2h-1v-3l1-1c0-1 0 0 0 0 0-1 0-4-3-4-4 0-3 3-3 4 0 0 0-1 0 0v1l1 1v2h-1l-3 2-1 1s2 2 7 2Z" fill="url(#f)"/><path d="M51 26H31l-1-1h22l-1 1Z" fill="url(#g)"/><path d="M44 30H31l-1-1 1-1h13v2Z" fill="url(#h)"/><path opacity=".6" d="M58 34H31l-1-1 1-1h27l1 1-1 1Z" fill="url(#i)"/><path opacity=".6" d="M58 46H11v-2h47v2Z" fill="url(#j)"/><path opacity=".6" d="M58 38H31l-1-1h29l-1 1Z" fill="url(#k)"/></g><defs><linearGradient id="b" x1="-9" y1="32.9" x2="76.3" y2="63.2" gradientUnits="userSpaceOnUse"><stop stop-color="#6CBCFC"/><stop offset=".2" stop-color="#5EABFC"/><stop offset=".4" stop-color="#509AFC"/><stop offset=".7" stop-color="#4890FC"/><stop offset="1" stop-color="#458DFC"/></linearGradient><linearGradient id="c" x1="-4.8" y1="-19.2" x2="54.8" y2="12.2" gradientUnits="userSpaceOnUse"><stop stop-color="#CFE9FF"/><stop offset="1" stop-color="#A1D6FB"/></linearGradient><linearGradient id="d" x1="14.7" y1="3" x2="54.2" y2="3" gradientUnits="userSpaceOnUse"><stop stop-color="#B0F4FF"/><stop offset="1" stop-color="#69DCFC"/></linearGradient><linearGradient id="e" x1="14.8" y1="27.7" x2="23.6" y2="40.2" gradientUnits="userSpaceOnUse"><stop stop-color="#6CBCFC"/><stop offset="1" stop-color="#458DFC"/></linearGradient><linearGradient id="f" x1="13.7" y1="28.5" x2="22.6" y2="41" gradientUnits="userSpaceOnUse"><stop stop-color="#B0F4FF"/><stop offset=".1" stop-color="#A1EFFE"/><stop offset=".3" stop-color="#88E7FD"/><stop offset=".5" stop-color="#77E1FD"/><stop offset=".7" stop-color="#6CDDFC"/><stop offset="1" stop-color="#69DCFC"/></linearGradient><linearGradient id="g" x1="29.8" y1="25.3" x2="51.8" y2="25.3" gradientUnits="userSpaceOnUse"><stop stop-color="#6CBCFC"/><stop offset="1" stop-color="#458DFC"/></linearGradient><linearGradient id="h" x1="29.8" y1="28.8" x2="44.2" y2="28.8" gradientUnits="userSpaceOnUse"><stop stop-color="#6CBCFC"/><stop offset="1" stop-color="#458DFC"/></linearGradient><linearGradient id="i" x1="29.8" y1="33.1" x2="58.9" y2="33.1" gradientUnits="userSpaceOnUse"><stop stop-color="#6CBCFC"/><stop offset="1" stop-color="#458DFC"/></linearGradient><linearGradient id="j" x1="10.7" y1="45.1" x2="58.3" y2="45.1" gradientUnits="userSpaceOnUse"><stop stop-color="#6CBCFC"/><stop offset="1" stop-color="#458DFC"/></linearGradient><linearGradient id="k" x1="29.8" y1="37.3" x2="58.9" y2="37.3" gradientUnits="userSpaceOnUse"><stop stop-color="#6CBCFC"/><stop offset="1" stop-color="#458DFC"/></linearGradient><clipPath id="a"><path fill="#fff" transform="translate(0 1)" d="M0 0h68v88H0z"/></clipPath></defs></svg>