<svg width="70" height="89" fill="none" xmlns="http://www.w3.org/2000/svg"><g clip-path="url(#a)"><path d="M67 1H3L1 3v84l2 2h64l2-2V3l-2-2Z" fill="url(#b)"/><path d="M63 5H7L5 7v69l2 2h56l2-2V7l-2-2Z" fill="#fff"/><path d="M46 38H24l-2-2V16l2-2h22l2 2v20l-2 2Z" fill="url(#c)"/><path d="M35 87c2 0 3-2 3-3 0-2-1-4-3-4s-4 2-4 4c0 1 2 3 4 3Z" fill="#fff"/><path d="M55 48H15l-2-1 2-2h40l1 2-1 1Z" fill="url(#d)"/><path opacity=".6" d="M48 57H15l-2-1 2-1h33l1 1-1 1Z" fill="url(#e)"/><path opacity=".3" d="M42 63H15l-2-1 2-1h27l1 1-1 1Z" fill="url(#f)"/><path opacity=".6" d="M45 68H15l-2-1 2-1h30l1 1-1 1Z" fill="url(#g)"/><path d="M35 25c2 0 4-2 4-4s-2-3-4-3-4 1-4 3 2 4 4 4Zm0 2c-3 0-8 1-8 4v1l1 1h14l1-1v-1c0-3-5-4-8-4Z" fill="#fff"/></g><defs><linearGradient id="b" x1="5" y1="42.6" x2="69" y2="48.6" gradientUnits="userSpaceOnUse"><stop stop-color="#6CBCFC"/><stop offset="1" stop-color="#458DFC"/></linearGradient><linearGradient id="c" x1="19.8" y1="18.7" x2="48.8" y2="35.1" gradientUnits="userSpaceOnUse"><stop stop-color="#B0F4FF"/><stop offset=".1" stop-color="#A3F0FE"/><stop offset=".3" stop-color="#8AE7FD"/><stop offset=".5" stop-color="#77E1FD"/><stop offset=".7" stop-color="#6DDDFC"/><stop offset="1" stop-color="#69DCFC"/></linearGradient><linearGradient id="d" x1="56.4" y1="46.5" x2="13.5" y2="46.5" gradientUnits="userSpaceOnUse"><stop stop-color="#6CBCFC"/><stop offset="1" stop-color="#458DFC"/></linearGradient><linearGradient id="e" x1="49.1" y1="56.1" x2="13.5" y2="56.1" gradientUnits="userSpaceOnUse"><stop stop-color="#6CBCFC"/><stop offset="1" stop-color="#458DFC"/></linearGradient><linearGradient id="f" x1="42.6" y1="61.9" x2="13.5" y2="61.9" gradientUnits="userSpaceOnUse"><stop stop-color="#6CBCFC"/><stop offset="1" stop-color="#458DFC"/></linearGradient><linearGradient id="g" x1="46.1" y1="67.2" x2="13.5" y2="67.2" gradientUnits="userSpaceOnUse"><stop stop-color="#6CBCFC"/><stop offset="1" stop-color="#458DFC"/></linearGradient><clipPath id="a"><path fill="#fff" transform="translate(1 1)" d="M0 0h68v88H0z"/></clipPath></defs></svg>