<svg width="95" height="84" fill="none" xmlns="http://www.w3.org/2000/svg"><g clip-path="url(#a)"><path d="m58 41-9 8-39 34-4 1-4-2c-2-2-2-5 1-7l46-34 5-4 4 4Z" fill="url(#b)"/><path d="m48 49-9 8-1-8 5-4 5 4Z" fill="#3A81D6" fill-opacity=".8"/><path d="M94 28c0 15-13 28-30 28-11 0-20-5-25-13-3-4-5-9-5-15C34 13 47 0 64 0c7 0 14 3 20 7 6 5 10 13 10 21Z" fill="url(#c)"/><path d="M64 50c13 0 23-10 23-22S77 6 64 6 41 16 41 28s10 22 23 22Z" fill="#fff"/><path opacity=".1" d="M94 28c0 15-13 28-30 28-11 0-20-5-25-13 34-2 43-29 45-36 6 5 10 13 10 21Z" fill="#1A6FB5" fill-opacity=".5"/><path d="M64 28c3 0 5-2 5-4 0-3-2-5-5-5s-5 2-5 5c0 2 2 4 5 4Zm0 2c-3 0-10 2-10 5v1l1 1h18l1-1v-1c0-3-7-5-10-5Z" fill="url(#d)"/></g><defs><linearGradient id="b" x1="6.5" y1="78.6" x2="51.5" y2="34.2" gradientUnits="userSpaceOnUse"><stop stop-color="#67C3F3"/><stop offset="1" stop-color="#5A98F2"/></linearGradient><linearGradient id="c" x1="51.5" y1="2.3" x2="71.4" y2="50.7" gradientUnits="userSpaceOnUse"><stop stop-color="#67C3F3"/><stop offset="1" stop-color="#5A98F2"/></linearGradient><linearGradient id="d" x1="56.8" y1="26.7" x2="74.1" y2="35.8" gradientUnits="userSpaceOnUse"><stop stop-color="#B0F4FF"/><stop offset=".1" stop-color="#A6F1FF"/><stop offset=".3" stop-color="#8BE8FD"/><stop offset=".5" stop-color="#78E1FD"/><stop offset=".8" stop-color="#6DDDFC"/><stop offset="1" stop-color="#69DCFC"/></linearGradient><clipPath id="a"><path fill="#fff" transform="translate(1)" d="M0 0h93v84H0z"/></clipPath></defs></svg>