<svg width="72" height="89" fill="none" xmlns="http://www.w3.org/2000/svg"><g clip-path="url(#a)"><path d="M71 4v80c0 3-2 4-4 4H5c-2 0-4-1-4-4V4c0-2 2-4 4-4h62c2 0 4 2 4 4Z" fill="url(#b)"/><path d="M67 8v73c0 2-2 4-4 4H9c-2 0-4-2-4-4V8c0-2 2-4 4-4h54c2 0 4 2 4 4Z" fill="url(#c)"/><path d="M28 17v4h-5l-1 1v5h-4l-1-1v-5h-6v-4h6v-5l1-1h4v5l1 1h5Z" fill="url(#d)"/><path opacity=".5" d="M60 37H12l-1-1v-1l1-1h48l1 1v1l-1 1Z" fill="url(#e)"/><path d="M60 16H36v-3h24l1 1v1l-1 1Z" fill="url(#f)"/><path opacity=".5" d="M53 23H36v-3h17l1 1v2h-1Z" fill="url(#g)"/><path opacity=".5" d="M60 45H12l-1-1v-1l1-1h48l1 1v1l-1 1Z" fill="url(#h)"/><path opacity=".5" d="M60 53H12l-1-1v-1l1-1h48l1 1v1l-1 1Z" fill="url(#i)"/><path opacity=".5" d="M60 61H12l-1-1v-1l1-1h48l1 1v1l-1 1Z" fill="url(#j)"/><path opacity=".5" d="M60 69H12l-1-1v-1l1-1h48l1 1v1l-1 1Z" fill="url(#k)"/><path opacity=".5" d="M60 77H12l-1-1v-1l1-1h48l1 1v1l-1 1Z" fill="url(#l)"/><path opacity=".1" d="M71 4v80c0 3-2 4-4 4H5c-2 0-4-1-4-4v-1C38 69 56 14 60 0h7c2 0 4 2 4 4Z" fill="#1A6FB5" fill-opacity=".4"/></g><defs><linearGradient id="b" x1="97.2" y1="117.1" x2="6" y2="-12.8" gradientUnits="userSpaceOnUse"><stop offset=".3" stop-color="#5BA7FC"/><stop offset="1" stop-color="#69B8FC"/></linearGradient><linearGradient id="c" x1="9.6" y1="6.7" x2="53.8" y2="76.3" gradientUnits="userSpaceOnUse"><stop offset=".3" stop-color="#fff"/><stop offset="1" stop-color="#fff"/></linearGradient><linearGradient id="d" x1="11" y1="9" x2="24.3" y2="32.8" gradientUnits="userSpaceOnUse"><stop stop-color="#B0F4FF"/><stop offset=".4" stop-color="#80E4FD"/><stop offset="1" stop-color="#6CDDFC"/></linearGradient><linearGradient id="e" x1="11.3" y1="35.6" x2="60.8" y2="35.6" gradientUnits="userSpaceOnUse"><stop stop-color="#6CBCFC"/><stop offset="1" stop-color="#458DFC"/></linearGradient><linearGradient id="f" x1="35.6" y1="14.6" x2="60.8" y2="14.6" gradientUnits="userSpaceOnUse"><stop stop-color="#6CBCFC"/><stop offset="1" stop-color="#458DFC"/></linearGradient><linearGradient id="g" x1="35.6" y1="21.8" x2="53.7" y2="21.8" gradientUnits="userSpaceOnUse"><stop stop-color="#6CBCFC"/><stop offset="1" stop-color="#458DFC"/></linearGradient><linearGradient id="h" x1="11.3" y1="43.6" x2="60.8" y2="43.6" gradientUnits="userSpaceOnUse"><stop stop-color="#6CBCFC"/><stop offset="1" stop-color="#458DFC"/></linearGradient><linearGradient id="i" x1="11.3" y1="51.6" x2="60.8" y2="51.6" gradientUnits="userSpaceOnUse"><stop stop-color="#6CBCFC"/><stop offset="1" stop-color="#458DFC"/></linearGradient><linearGradient id="j" x1="11.3" y1="59.6" x2="60.8" y2="59.6" gradientUnits="userSpaceOnUse"><stop stop-color="#6CBCFC"/><stop offset="1" stop-color="#458DFC"/></linearGradient><linearGradient id="k" x1="11.3" y1="67.6" x2="60.8" y2="67.6" gradientUnits="userSpaceOnUse"><stop stop-color="#6CBCFC"/><stop offset="1" stop-color="#458DFC"/></linearGradient><linearGradient id="l" x1="11.3" y1="75.6" x2="60.8" y2="75.6" gradientUnits="userSpaceOnUse"><stop stop-color="#6CBCFC"/><stop offset="1" stop-color="#458DFC"/></linearGradient><clipPath id="a"><path fill="#fff" transform="translate(1)" d="M0 0h70v88H0z"/></clipPath></defs></svg>